<svg xmlns="http://www.w3.org/2000/svg" width="20.207" height="14" viewBox="0 0 20.207 14">
  <path id="visibility_FILL0_wght400_GRAD0_opsz48" d="M12.453,18.967A3.944,3.944,0,0,0,16.42,15a3.944,3.944,0,0,0-3.967-3.967A3.944,3.944,0,0,0,8.487,15a3.944,3.944,0,0,0,3.967,3.967Zm0-1.353A2.623,2.623,0,0,1,10.6,13.145a2.648,2.648,0,0,1,3.71,0,2.613,2.613,0,0,1-1.855,4.468Zm0,4.387a10.418,10.418,0,0,1-5.868-1.75A11.81,11.81,0,0,1,2.49,15.63a.913.913,0,0,1-.105-.28,1.767,1.767,0,0,1,0-.7.913.913,0,0,1,.105-.28A11.81,11.81,0,0,1,6.585,9.75,10.418,10.418,0,0,1,12.453,8a10.418,10.418,0,0,1,5.868,1.75,11.81,11.81,0,0,1,4.095,4.62.913.913,0,0,1,.1.28,1.767,1.767,0,0,1,0,.7.913.913,0,0,1-.1.28,11.81,11.81,0,0,1-4.1,4.62A10.418,10.418,0,0,1,12.453,22ZM12.453,15Zm0,5.6a9.383,9.383,0,0,0,5.192-1.528A9.918,9.918,0,0,0,21.25,15a9.918,9.918,0,0,0-3.6-4.072,9.582,9.582,0,0,0-10.383,0A10.084,10.084,0,0,0,3.633,15a10.084,10.084,0,0,0,3.628,4.072A9.383,9.383,0,0,0,12.453,20.6Z" transform="translate(-2.35 -8)" fill="#2c2b4e"/>
</svg>
