<svg xmlns="http://www.w3.org/2000/svg" width="14.222" height="16" viewBox="0 0 14.222 16">
  <path id="delete_FILL0_wght400_GRAD0_opsz48" d="M10.244,22a1.367,1.367,0,0,1-1.333-1.333V8H8.667a.667.667,0,1,1,0-1.333h3.511A.646.646,0,0,1,12.844,6h4.533a.646.646,0,0,1,.667.667h3.511a.667.667,0,1,1,0,1.333h-.244V20.667A1.367,1.367,0,0,1,19.978,22Zm0-14V20.667h9.733V8ZM12.6,18.089a.667.667,0,1,0,1.333,0V10.556a.667.667,0,1,0-1.333,0Zm3.689,0a.667.667,0,1,0,1.333,0V10.556a.667.667,0,1,0-1.333,0ZM10.244,8V8Z" transform="translate(-8 -6)" fill="#2c2b4e"/>
</svg>
